# xmcd
# 
# Track frame offsets:
#     150
#     16913
#     34400
#     52368
#     64876
#     81008
#     98728
#     118480
#     136793
#     149730
#     166905
#     188044
# 
# Disc length: 2742
# 
# Revision: 1
# Processed by: cddbd v1.5.2PL0 Copyright (c) Steve Scherf et al.
# Submitted via: fre:ac v1.0.31
# 
DISCID=b00ab40c
DTITLE=Various Artist - Moments
DYEAR=2009
DGENRE=Blues
TTITLE0=James Christian - The Best Is Yet You Come
TTITLE1=San Glaser - Comin' Home
TTITLE2=Daniel Hall - You Are My Angel
TTITLE3=Danny Miles - Right Here Waiting
TTITLE4=Christina Undhjem - Love Will Find A Way
TTITLE5=Sandrine - Home
TTITLE6=Peter Weihe and Anja Vigors - All My Fault
TTITLE7=Rod Davies - She Shines A Light
TTITLE8=Chris Madin - Jigsaw
TTITLE9=Daniyella - I Have Come Home
TTITLE10=Berent Philip Moe - Second To None
TTITLE11=Peter-John Vettese - Once You Moved In Me
EXTD=
EXTT0=
EXTT1=
EXTT2=
EXTT3=
EXTT4=
EXTT5=
EXTT6=
EXTT7=
EXTT8=
EXTT9=
EXTT10=
EXTT11=
PLAYORDER=
